<svg width="261" height="261" version="1.1" xmlns="http://www.w3.org/2000/svg" xmlns:xlink="http://www.w3.org/1999/xlink"><path d="M231.77 169.36L234.12 171.71L232.81 173.01Q197.06 175.62 188.18 170.14L188.18 170.14Q168.08 143.52 152.16 116.11L152.16 116.11L151.38 214.77Q151.38 221.82 143.81 229.13L143.81 229.13Q139.90 229.13 137.29 222.08L137.29 222.08Q135.72 218.16 134.94 216.86L134.94 216.86Q132.85 207.72 136.24 190.24L136.24 190.24Q137.55 184.23 138.07 180.58L138.07 180.58Q140.68 159.96 140.68 117.94L140.68 117.94Q120.58 154.74 87.17 179.54L87.17 179.54Q84.83 179.54 84.56 177.71L84.56 177.71Q89.26 170.66 110.66 143.00L110.66 143.00Q130.76 117.42 137.81 98.63L137.81 98.63L119.28 100.71Q111.45 100.45 105.70 94.19L105.70 94.19L108.05 92.10L140.94 86.62L141.72 85.58Q140.94 78.53 141.46 57.13L141.46 57.13Q141.46 38.60 134.68 28.42L134.68 28.42Q131.54 23.98 131.54 20.59L131.54 20.59Q136.76 15.11 150.34 24.24L150.34 24.24Q156.08 28.16 158.17 31.29L158.17 31.29Q158.69 32.07 158.69 34.16L158.69 34.16Q158.69 35.20 156.34 41.47L156.34 41.47L155.82 43.03Q152.69 55.30 152.69 82.18L152.69 82.18Q156.60 81.66 171.48 76.44L171.48 76.44Q187.14 70.96 195.75 76.96L195.75 76.96Q196.79 77.75 197.84 78.79L197.84 78.79Q198.10 80.36 197.58 81.40L197.58 81.40Q197.06 82.70 196.01 82.97L196.01 82.97L152.69 94.71Q152.16 96.54 152.16 105.41L152.16 105.41Q176.18 131.25 177.74 132.82L177.74 132.82Q193.14 148.22 207.50 156.05L207.50 156.05L231.77 169.36ZM98.92 92.10L98.92 92.10Q98.66 96.28 71.51 102.28L71.51 102.28Q70.47 105.15 70.73 120.55L70.73 120.55L84.56 124.73Q92.13 127.86 92.92 133.08L92.92 133.08Q93.70 139.08 91.09 139.60L91.09 139.60L86.65 139.60L86.39 139.60Q80.39 136.21 70.73 127.07L70.73 127.07Q69.43 149.00 68.12 209.55L68.12 209.55Q64.73 217.38 61.86 219.47L61.86 219.47Q58.99 219.47 57.16 216.86L57.16 216.86Q49.85 206.16 53.77 189.19L53.77 189.19L56.90 174.58Q58.99 163.88 59.51 132.29L59.51 132.29Q59.51 128.12 59.51 124.99L59.51 124.99Q46.98 151.09 15.92 181.88L15.92 181.88Q10.18 187.63 6.00 187.63L6.00 187.63L6.00 184.76Q40.19 140.39 53.77 110.37L53.77 110.37Q55.07 108.02 55.85 105.67L55.85 105.67L35.76 108.80Q22.71 110.11 14.88 104.37L14.88 104.37Q14.88 102.02 18.53 101.50L18.53 101.50L55.33 94.97Q57.94 94.45 60.29 93.93L60.29 93.93L60.81 62.87Q60.03 44.08 52.98 33.64L52.98 33.64L52.72 29.72Q58.20 25.02 66.82 31.81L66.82 31.81Q73.08 36.51 74.65 37.29L74.65 37.29Q77.52 40.42 77.78 43.03L77.78 43.03Q72.04 69.13 71.51 84.01L71.51 84.01Q71.51 86.88 71.51 90.01L71.51 90.01L86.13 87.14Q94.48 86.36 98.92 92.10Z" stroke="#000" fill="black" /></svg>