<svg width="261" height="261" version="1.1" xmlns="http://www.w3.org/2000/svg" xmlns:xlink="http://www.w3.org/1999/xlink"><path d="M93.44 4.70L93.44 4.70L96.83 3.13Q122.67 6.00 131.02 13.31L131.02 13.31L134.41 17.23L135.72 20.36Q136.76 23.49 136.24 26.62L136.24 26.62Q135.46 28.97 134.15 30.54L134.15 30.54Q132.07 32.63 129.46 32.63L129.46 32.63Q122.41 32.63 104.66 19.05L104.66 19.05Q97.35 13.83 95.27 10.96L95.27 10.96Q93.44 8.35 93.44 4.70ZM179.05 55.07L179.05 55.07Q179.05 59.25 175.39 60.81L175.39 60.81Q172.00 62.12 151.90 66.29L151.90 66.29Q149.81 66.82 148.25 67.08L148.25 67.08Q115.88 73.60 81.17 79.34L81.17 79.34Q73.08 80.65 65.51 78.30L65.51 78.30Q59.51 76.47 55.85 72.56L55.85 72.56Q57.16 69.69 64.21 69.17L64.21 69.17Q95.53 66.29 131.81 57.16L131.81 57.16Q152.42 51.16 154.25 50.63L154.25 50.63Q164.17 48.02 171.48 50.11L171.48 50.11Q176.18 51.68 179.05 55.07ZM39.41 183.74L39.41 183.74Q31.06 183.48 22.71 176.70L22.71 176.70Q17.49 172.52 17.23 168.08L17.23 168.08L20.88 166.00L42.54 165.47L108.58 156.34L113.27 155.82L119.54 155.30Q121.63 154.51 121.63 152.95L121.63 152.95Q134.41 119.02 137.03 109.36L137.03 109.36Q139.64 98.66 139.64 91.61L139.64 91.61Q139.64 90.83 137.81 82.74L137.81 82.74Q137.55 81.17 137.29 79.87L137.29 79.87Q144.33 73.86 156.86 84.56L156.86 84.56Q160.25 87.44 162.34 90.31L162.34 90.31L161.82 93.96Q155.03 103.62 143.03 130.50L143.03 130.50Q136.24 145.90 131.02 154.25L131.02 154.25Q150.86 153.21 170.69 151.38L170.69 151.38L189.22 149.55Q195.75 149.55 210.11 157.12L210.11 157.12Q226.55 166.00 221.59 170.96L221.59 170.96Q219.76 173.04 213.76 172.00L213.76 172.00Q213.24 171.74 212.45 171.74L212.45 171.74L192.88 168.08Q139.11 158.95 86.65 169.91L86.65 169.91Q63.68 174.87 39.41 183.74ZM86.65 134.68L86.65 134.68Q73.08 113.01 68.64 104.66L68.64 104.66Q67.34 102.05 68.12 99.18L68.12 99.18Q68.90 96.83 70.99 96.83L70.99 96.83Q71.78 96.83 73.60 98.14L73.60 98.14L88.22 108.84Q97.88 117.45 97.88 125.54L97.88 125.54Q97.88 135.20 92.39 136.50L92.39 136.50L89.26 135.98Q87.96 135.72 86.65 134.68Z" stroke="#000" fill="black" /></svg>