<svg width="261" height="261" version="1.1" xmlns="http://www.w3.org/2000/svg" xmlns:xlink="http://www.w3.org/1999/xlink"><path d="M200.97 103.49L202.28 104.80Q197.06 107.67 182.18 110.02L182.18 110.02L180.61 110.28Q163.91 112.89 156.34 108.71L156.34 108.71L154.25 107.67Q144.86 100.88 124.76 80.26L124.76 80.26Q120.84 76.35 118.23 73.74L118.23 73.74Q116.93 83.13 116.67 114.45L116.67 114.45Q116.67 119.41 116.67 123.07L116.67 123.07Q114.58 128.55 113.80 129.33L113.80 129.33L112.23 129.85Q110.66 130.11 108.84 127.76L108.84 127.76L108.31 126.72Q103.62 120.19 106.23 102.19L106.23 102.19Q107.53 93.83 107.53 90.44L107.53 90.44L107.53 81.31Q84.30 111.32 61.07 118.63L61.07 118.63Q52.72 121.24 49.07 120.19L49.07 120.19L49.07 119.41Q77.00 100.62 87.96 88.61L87.96 88.61Q95.53 80.26 99.96 71.39L99.96 71.39L77.52 72.95L68.38 71.91Q64.47 71.13 61.34 69.04L61.34 69.04Q61.60 66.95 66.29 66.17L66.29 66.17L107.79 61.99L108.58 61.21Q107.01 40.07 103.88 32.50L103.88 32.50Q103.36 30.41 102.31 28.84L102.31 28.84Q102.31 20.49 116.67 28.32L116.67 28.32Q122.15 31.19 123.98 33.28L123.98 33.28Q126.06 35.37 122.15 47.11L122.15 47.11Q119.54 55.47 119.54 59.12L119.54 59.12L146.68 52.33Q161.30 49.72 166.26 55.73L166.26 55.73Q166.00 60.95 127.89 66.43L127.89 66.43L120.32 67.47L119.80 68.26Q141.20 85.74 184.27 98.79L184.27 98.79Q188.96 100.10 200.97 103.49L200.97 103.49ZM231.25 211.28L233.59 213.11Q228.90 216.24 216.11 216.50L216.11 216.50Q215.06 216.76 214.54 216.76L214.54 216.76L199.93 217.55L194.44 216.50Q193.40 215.98 192.62 215.46L192.62 215.46Q185.83 211.28 155.30 169.26L155.30 169.26Q153.47 177.88 153.73 239.21L153.73 239.21Q153.73 244.69 149.03 247.30L149.03 247.30L147.20 248.08Q140.42 240.78 140.94 225.64L140.94 225.64L141.46 221.46Q144.07 198.49 144.07 171.35L144.07 171.35Q120.58 208.67 95.27 218.85L95.27 218.85L90.57 218.85L91.09 217.29Q124.50 187.27 136.76 163.26L136.76 163.26Q138.85 159.08 140.68 154.91L140.68 154.91L124.24 157.52L116.93 157.00Q110.92 155.95 107.79 151.25L107.79 151.25L109.10 150.21L143.81 145.25Q143.81 134.29 139.64 123.33L139.64 123.33Q139.37 122.80 138.33 119.93L138.33 119.93L137.81 118.63Q137.55 110.80 158.17 124.89L158.17 124.89Q158.95 125.15 159.21 125.41L159.21 125.41Q160.25 127.76 158.17 131.16L158.17 131.16Q157.12 132.46 156.86 133.51L156.86 133.51Q156.60 135.07 155.82 142.90L155.82 142.90L180.87 137.16Q188.70 136.12 195.49 138.46L195.49 138.46Q199.67 141.07 199.93 143.68L199.93 143.68L196.79 145.77Q178.00 147.60 155.30 151.78L155.30 151.78L155.03 159.87L182.44 184.40Q196.79 196.67 209.84 202.15L209.84 202.15L231.25 211.28ZM102.05 155.69L102.05 155.69Q99.70 156.47 84.56 158.30L84.56 158.30Q82.48 158.56 80.65 158.82L80.65 158.82Q79.87 159.34 75.43 159.87L75.43 159.87Q72.56 160.13 72.56 163.26L72.56 163.26Q72.56 171.35 73.34 174.22L73.34 174.22Q86.13 177.09 86.91 177.61L86.91 177.61Q91.87 179.70 94.48 183.62L94.48 183.62L95.53 190.40Q95.27 191.97 94.22 192.75L94.22 192.75L90.05 192.23L72.82 181.01L72.04 182.83L70.99 234.77Q70.99 238.95 65.77 242.86L65.77 242.86L64.73 243.65Q62.90 243.13 61.34 239.99L61.34 239.99Q56.90 230.08 58.99 216.50L58.99 216.50L60.03 209.98Q61.34 200.58 61.34 181.27L61.34 181.27Q36.80 218.33 8.87 228.25L8.87 228.25L6.53 226.94Q8.87 224.33 22.45 212.33L22.45 212.33Q25.06 209.72 27.14 207.63L27.14 207.63Q50.63 182.83 58.46 163.52L58.46 163.52Q55.33 163.52 41.50 167.17L41.50 167.17Q26.62 171.09 20.10 163.78L20.10 163.78Q19.57 163.26 19.05 162.48L19.05 162.48Q19.05 159.08 21.14 158.82L21.14 158.82L61.34 154.12Q62.38 146.03 60.55 139.25L60.55 139.25Q58.99 134.29 56.12 130.63L56.12 130.63Q56.12 128.29 58.20 127.50L58.20 127.50Q63.68 127.50 72.56 133.77L72.56 133.77Q74.91 135.59 76.47 136.38L76.47 136.38Q76.47 137.94 74.12 147.34L74.12 147.34L73.34 151.78Q89.00 149.43 92.13 149.43L92.13 149.43Q102.31 149.69 102.05 155.69Z" stroke="#000" fill="black" /></svg>